<svg width="44" height="49" viewBox="0 0 44 49" fill="none" xmlns="http://www.w3.org/2000/svg">
<path d="M43.2078 7.28164L41.0769 4.20365L39.2867 2.66713L39.2701 1.41065L38.4212 0.808594L37.3559 3.05326L35.7459 2.01925L35.1886 2.58034L35.8148 3.82405L26.5703 12.5534L12.0115 19.5787L7.64398 20.536L6.61645 21.0575L3.90377 24.5303L2.77723 28.2896L2.51266 30.3677L3.09686 31.6082L3.1586 31.1551L4.19912 27.4063L3.20616 34.9768L2.07983 38.3891L0 48.7765H1.88839L1.31748 47.8366L2.30933 42.8737L6.05453 35.4664L5.36572 38.251L8.29193 48.7765H10.2819L9.44974 47.7274L8.05373 43.6033L7.46393 37.4096L9.6087 32.5168L10.8934 31.2753L16.845 31.284L17.8978 32.3235L15.9732 46.5137L16.05 48.7765H17.9439L17.2455 47.7374L17.506 42.3345L20.4114 32.4441L20.7681 32.4466L27.1446 48.7765H29.0591L28.0865 47.7926L26.353 43.1491L23.6351 31.4331L24.3556 25.4224L24.0028 23.7456L24.3345 22.5658L36.7052 8.65498L38.5897 8.29042L43.3487 10.0056L43.6867 8.67675L43.2078 7.28164Z" fill="white"/>
</svg>
