<svg width="285" height="61" viewBox="0 0 285 61" fill="none" xmlns="http://www.w3.org/2000/svg">
<path d="M85.8 20.6181H86.62C86.6733 20.8314 86.72 21.0914 86.76 21.3981C86.8133 21.6914 86.8533 22.0114 86.88 22.3581C86.92 22.6914 86.9467 23.0248 86.96 23.3581C86.9733 23.6914 86.98 23.9914 86.98 24.2581C86.5133 24.5514 85.9267 24.7581 85.22 24.8781C84.5267 24.9981 83.8133 25.0581 83.08 25.0581C81.9733 25.0581 80.9667 24.9248 80.06 24.6581C79.1667 24.3781 78.4 23.9448 77.76 23.3581C77.1333 22.7581 76.6467 22.0048 76.3 21.0981C75.9533 20.1781 75.78 19.0781 75.78 17.7981C75.78 16.5314 75.9667 15.4448 76.34 14.5381C76.7267 13.6181 77.24 12.8648 77.88 12.2781C78.52 11.6914 79.26 11.2648 80.1 10.9981C80.9533 10.7181 81.8467 10.5781 82.78 10.5781C83.66 10.5781 84.4533 10.6448 85.16 10.7781C85.88 10.8981 86.4667 11.0648 86.92 11.2781C86.92 11.4914 86.9067 11.7648 86.88 12.0981C86.8667 12.4314 86.8333 12.7848 86.78 13.1581C86.74 13.5181 86.6867 13.8781 86.62 14.2381C86.5667 14.5848 86.5133 14.8781 86.46 15.1181H85.62L84.52 12.0981C84.4 12.0314 84.2067 11.9781 83.94 11.9381C83.6733 11.8981 83.4 11.8781 83.12 11.8781C82.5733 11.8781 82.06 11.9914 81.58 12.2181C81.1 12.4314 80.6733 12.7781 80.3 13.2581C79.9267 13.7381 79.6333 14.3581 79.42 15.1181C79.2067 15.8648 79.1 16.7648 79.1 17.8181C79.1 19.7248 79.48 21.1914 80.24 22.2181C81 23.2448 82.0333 23.7581 83.34 23.7581C83.7133 23.7581 84.0267 23.7314 84.28 23.6781C84.5467 23.6114 84.7267 23.5248 84.82 23.4181L85.8 20.6181ZM97.4469 21.9181C97.4469 22.2114 97.4469 22.4648 97.4469 22.6781C97.4602 22.8914 97.4802 23.1181 97.5069 23.3581L98.8869 23.5581V24.2581C98.7269 24.3381 98.5069 24.4181 98.2269 24.4981C97.9602 24.5781 97.6735 24.6581 97.3669 24.7381C97.0735 24.8048 96.7802 24.8581 96.4869 24.8981C96.1935 24.9514 95.9335 24.9914 95.7069 25.0181H95.0269C94.8935 24.7114 94.8135 24.4048 94.7869 24.0981C94.7602 23.7914 94.7402 23.4181 94.7269 22.9781H94.6269C94.5602 23.2448 94.4469 23.5048 94.2869 23.7581C94.1269 23.9981 93.9202 24.2181 93.6669 24.4181C93.4269 24.6048 93.1402 24.7581 92.8069 24.8781C92.4735 24.9981 92.1002 25.0581 91.6869 25.0581C91.2469 25.0581 90.8402 24.9914 90.4669 24.8581C90.0935 24.7248 89.7669 24.5381 89.4869 24.2981C89.2069 24.0581 88.9869 23.7714 88.8269 23.4381C88.6669 23.0914 88.5869 22.7048 88.5869 22.2781C88.5869 21.6781 88.7002 21.1848 88.9269 20.7981C89.1535 20.4114 89.5069 20.0981 89.9869 19.8581C90.4802 19.6048 91.1069 19.4181 91.8669 19.2981C92.6402 19.1781 93.5735 19.0914 94.6669 19.0381C94.7735 17.8914 94.7269 17.0514 94.5269 16.5181C94.3269 15.9848 93.8935 15.7181 93.2269 15.7181C92.8135 15.7181 92.4335 15.7848 92.0869 15.9181L91.1469 18.3181H90.2669C90.1602 18.1581 90.0535 17.9781 89.9469 17.7781C89.8535 17.5648 89.7602 17.3448 89.6669 17.1181C89.5869 16.8781 89.5135 16.6381 89.4469 16.3981C89.3935 16.1581 89.3535 15.9248 89.3269 15.6981C89.8335 15.3514 90.4869 15.0781 91.2869 14.8781C92.0869 14.6781 92.9335 14.5781 93.8269 14.5781C94.5869 14.5781 95.2069 14.6648 95.6869 14.8381C96.1669 14.9981 96.5402 15.2248 96.8069 15.5181C97.0869 15.7981 97.2802 16.1314 97.3869 16.5181C97.4935 16.9048 97.5469 17.3181 97.5469 17.7581C97.5469 18.5581 97.5269 19.2848 97.4869 19.9381C97.4602 20.5781 97.4469 21.2381 97.4469 21.9181ZM92.9469 23.4581C93.2269 23.4581 93.4669 23.4048 93.6669 23.2981C93.8669 23.1914 94.0335 23.0648 94.1669 22.9181C94.3135 22.7714 94.4202 22.6114 94.4869 22.4381C94.5669 22.2648 94.6269 22.1114 94.6669 21.9781V19.9781C94.0402 19.9914 93.5269 20.0314 93.1269 20.0981C92.7269 20.1648 92.4135 20.2781 92.1869 20.4381C91.9602 20.5848 91.8002 20.7781 91.7069 21.0181C91.6269 21.2448 91.5869 21.5248 91.5869 21.8581C91.5869 22.3648 91.7069 22.7581 91.9469 23.0381C92.1869 23.3181 92.5202 23.4581 92.9469 23.4581ZM109.8 28.8181H104.36V28.0381C104.733 27.8248 105.173 27.6648 105.68 27.5581V24.3981C105.52 24.5981 105.273 24.7581 104.94 24.8781C104.606 24.9981 104.273 25.0581 103.94 25.0581C103.326 25.0581 102.76 24.9648 102.24 24.7781C101.733 24.5781 101.293 24.2781 100.92 23.8781C100.546 23.4781 100.253 22.9714 100.04 22.3581C99.8397 21.7448 99.7397 21.0181 99.7397 20.1781C99.7397 19.2181 99.8464 18.3914 100.06 17.6981C100.273 16.9914 100.573 16.4114 100.96 15.9581C101.346 15.4914 101.806 15.1448 102.34 14.9181C102.886 14.6914 103.493 14.5781 104.16 14.5781C104.493 14.5781 104.8 14.6314 105.08 14.7381C105.36 14.8314 105.56 14.9581 105.68 15.1181V11.4381L104.16 11.2781V10.4981C104.346 10.4181 104.6 10.3381 104.92 10.2581C105.24 10.1781 105.573 10.1048 105.92 10.0381C106.28 9.97145 106.626 9.91811 106.96 9.87811C107.293 9.82478 107.573 9.79145 107.8 9.77811H108.48V15.2381C108.666 15.0381 108.926 14.8781 109.26 14.7581C109.606 14.6381 109.966 14.5781 110.34 14.5781C110.94 14.5781 111.486 14.6714 111.98 14.8581C112.486 15.0448 112.92 15.3314 113.28 15.7181C113.64 16.1048 113.92 16.5914 114.12 17.1781C114.32 17.7514 114.42 18.4314 114.42 19.2181C114.42 20.2314 114.306 21.1048 114.08 21.8381C113.866 22.5714 113.566 23.1781 113.18 23.6581C112.793 24.1381 112.333 24.4914 111.8 24.7181C111.266 24.9448 110.693 25.0581 110.08 25.0581C109.786 25.0581 109.486 25.0114 109.18 24.9181C108.873 24.8381 108.64 24.7114 108.48 24.5381V27.5581C108.973 27.6381 109.413 27.7981 109.8 28.0381V28.8181ZM104.64 23.7981C104.866 23.7981 105.066 23.7714 105.24 23.7181C105.413 23.6514 105.593 23.5248 105.78 23.3381V16.1781C105.62 16.0714 105.453 15.9914 105.28 15.9381C105.106 15.8714 104.886 15.8381 104.62 15.8381C104.353 15.8381 104.106 15.8981 103.88 16.0181C103.653 16.1381 103.453 16.3381 103.28 16.6181C103.106 16.8848 102.973 17.2448 102.88 17.6981C102.786 18.1514 102.74 18.7181 102.74 19.3981C102.74 20.3048 102.786 21.0448 102.88 21.6181C102.973 22.1781 103.1 22.6248 103.26 22.9581C103.433 23.2781 103.633 23.4981 103.86 23.6181C104.1 23.7381 104.36 23.7981 104.64 23.7981ZM109.5 15.8381C109.273 15.8381 109.073 15.8714 108.9 15.9381C108.74 15.9914 108.566 16.0981 108.38 16.2581V23.4381C108.54 23.5714 108.706 23.6648 108.88 23.7181C109.053 23.7714 109.273 23.7981 109.54 23.7981C109.78 23.7981 110.013 23.7381 110.24 23.6181C110.466 23.4981 110.666 23.2914 110.84 22.9981C111.013 22.6914 111.153 22.2914 111.26 21.7981C111.366 21.3048 111.42 20.6781 111.42 19.9181C111.42 19.1048 111.373 18.4314 111.28 17.8981C111.2 17.3648 111.08 16.9514 110.92 16.6581C110.76 16.3514 110.56 16.1381 110.32 16.0181C110.08 15.8981 109.806 15.8381 109.5 15.8381ZM124.4 21.9181C124.4 22.2114 124.4 22.4648 124.4 22.6781C124.413 22.8914 124.433 23.1181 124.46 23.3581L125.84 23.5581V24.2581C125.68 24.3381 125.46 24.4181 125.18 24.4981C124.913 24.5781 124.627 24.6581 124.32 24.7381C124.027 24.8048 123.733 24.8581 123.44 24.8981C123.147 24.9514 122.887 24.9914 122.66 25.0181H121.98C121.847 24.7114 121.767 24.4048 121.74 24.0981C121.713 23.7914 121.693 23.4181 121.68 22.9781H121.58C121.513 23.2448 121.4 23.5048 121.24 23.7581C121.08 23.9981 120.873 24.2181 120.62 24.4181C120.38 24.6048 120.093 24.7581 119.76 24.8781C119.427 24.9981 119.053 25.0581 118.64 25.0581C118.2 25.0581 117.793 24.9914 117.42 24.8581C117.047 24.7248 116.72 24.5381 116.44 24.2981C116.16 24.0581 115.94 23.7714 115.78 23.4381C115.62 23.0914 115.54 22.7048 115.54 22.2781C115.54 21.6781 115.653 21.1848 115.88 20.7981C116.107 20.4114 116.46 20.0981 116.94 19.8581C117.433 19.6048 118.06 19.4181 118.82 19.2981C119.593 19.1781 120.527 19.0914 121.62 19.0381C121.727 17.8914 121.68 17.0514 121.48 16.5181C121.28 15.9848 120.847 15.7181 120.18 15.7181C119.767 15.7181 119.387 15.7848 119.04 15.9181L118.1 18.3181H117.22C117.113 18.1581 117.007 17.9781 116.9 17.7781C116.807 17.5648 116.713 17.3448 116.62 17.1181C116.54 16.8781 116.467 16.6381 116.4 16.3981C116.347 16.1581 116.307 15.9248 116.28 15.6981C116.787 15.3514 117.44 15.0781 118.24 14.8781C119.04 14.6781 119.887 14.5781 120.78 14.5781C121.54 14.5781 122.16 14.6648 122.64 14.8381C123.12 14.9981 123.493 15.2248 123.76 15.5181C124.04 15.7981 124.233 16.1314 124.34 16.5181C124.447 16.9048 124.5 17.3181 124.5 17.7581C124.5 18.5581 124.48 19.2848 124.44 19.9381C124.413 20.5781 124.4 21.2381 124.4 21.9181ZM119.9 23.4581C120.18 23.4581 120.42 23.4048 120.62 23.2981C120.82 23.1914 120.987 23.0648 121.12 22.9181C121.267 22.7714 121.373 22.6114 121.44 22.4381C121.52 22.2648 121.58 22.1114 121.62 21.9781V19.9781C120.993 19.9914 120.48 20.0314 120.08 20.0981C119.68 20.1648 119.367 20.2781 119.14 20.4381C118.913 20.5848 118.753 20.7781 118.66 21.0181C118.58 21.2448 118.54 21.5248 118.54 21.8581C118.54 22.3648 118.66 22.7581 118.9 23.0381C119.14 23.3181 119.473 23.4581 119.9 23.4581ZM132.073 28.8181H126.553V28.0381C127.006 27.8248 127.446 27.6648 127.873 27.5581V16.2381L126.553 16.0781V15.2981C126.766 15.2048 127.026 15.1181 127.333 15.0381C127.653 14.9581 127.979 14.8914 128.313 14.8381C128.646 14.7714 128.966 14.7181 129.273 14.6781C129.593 14.6381 129.859 14.6048 130.073 14.5781H130.753V16.8181H130.773C130.999 16.1781 131.353 15.6448 131.833 15.2181C132.326 14.7914 133.006 14.5781 133.873 14.5781C134.459 14.5781 134.986 14.6781 135.453 14.8781C135.933 15.0648 136.333 15.3648 136.653 15.7781C136.986 16.1781 137.239 16.6981 137.413 17.3381C137.599 17.9648 137.693 18.7181 137.693 19.5981C137.693 20.4381 137.573 21.1981 137.333 21.8781C137.106 22.5581 136.773 23.1314 136.333 23.5981C135.906 24.0648 135.379 24.4248 134.753 24.6781C134.139 24.9314 133.439 25.0581 132.653 25.0581C132.199 25.0581 131.839 25.0248 131.573 24.9581C131.319 24.9048 131.046 24.8048 130.753 24.6581V27.5581C130.966 27.5848 131.179 27.6314 131.393 27.6981C131.606 27.7781 131.833 27.8914 132.073 28.0381V28.8181ZM132.713 16.1781C132.259 16.1781 131.853 16.3381 131.493 16.6581C131.146 16.9781 130.899 17.4714 130.753 18.1381V23.4581C130.966 23.6181 131.193 23.7381 131.433 23.8181C131.673 23.8848 131.986 23.9181 132.373 23.9181C133.133 23.9181 133.693 23.5514 134.053 22.8181C134.413 22.0848 134.593 21.0114 134.593 19.5981C134.593 18.5048 134.453 17.6648 134.173 17.0781C133.906 16.4781 133.419 16.1781 132.713 16.1781ZM138.9 14.8181H144.22V15.5981C144.074 15.6781 143.9 15.7581 143.7 15.8381C143.514 15.9181 143.287 15.9981 143.02 16.0781V20.5781L142.8 22.4381H142.9L143.68 20.9381L147.34 14.8181H151.12V15.5981C150.694 15.8381 150.254 15.9981 149.8 16.0781V23.5581C150.054 23.6248 150.294 23.6981 150.52 23.7781C150.747 23.8448 150.947 23.9314 151.12 24.0381V24.8181H145.8V24.0381C146.174 23.8248 146.574 23.6648 147 23.5581V18.8381L147.2 17.2581H147.1L146.34 18.7581L142.72 24.8181H138.9V24.0381C139.127 23.9314 139.347 23.8448 139.56 23.7781C139.774 23.6981 139.994 23.6248 140.22 23.5581V16.0781C139.7 15.9981 139.26 15.8381 138.9 15.5981V14.8181ZM167.19 24.8181H160.31V24.0581C160.577 23.9514 160.877 23.8448 161.21 23.7381C161.557 23.6181 161.903 23.5314 162.25 23.4781V12.1181H159.93L158.65 15.5381H157.83C157.777 15.2714 157.723 14.9314 157.67 14.5181C157.617 14.1048 157.57 13.6781 157.53 13.2381C157.49 12.7981 157.457 12.3648 157.43 11.9381C157.403 11.4981 157.39 11.1248 157.39 10.8181H170.13C170.13 11.1381 170.117 11.5114 170.09 11.9381C170.063 12.3648 170.03 12.7981 169.99 13.2381C169.95 13.6781 169.903 14.1048 169.85 14.5181C169.797 14.9181 169.743 15.2581 169.69 15.5381H168.85L167.57 12.1181H165.25V23.4781C165.597 23.5448 165.937 23.6248 166.27 23.7181C166.617 23.8114 166.923 23.9248 167.19 24.0581V24.8181ZM180.81 12.1581C180.49 12.0914 180.21 12.0114 179.97 11.9181C179.73 11.8114 179.496 11.6981 179.27 11.5781V10.8181H184.11V11.5781C183.963 11.6848 183.763 11.7914 183.51 11.8981C183.27 11.9914 182.996 12.0781 182.69 12.1581L178.87 20.7981C178.23 22.2648 177.563 23.3581 176.87 24.0781C176.176 24.7848 175.436 25.0648 174.65 24.9181C174.543 24.8114 174.43 24.6514 174.31 24.4381C174.203 24.2114 174.096 23.9781 173.99 23.7381C173.896 23.4848 173.816 23.2448 173.75 23.0181C173.683 22.7781 173.643 22.5781 173.63 22.4181L174.19 21.6181L176.57 22.3581C176.676 22.2381 176.776 22.0914 176.87 21.9181C176.963 21.7448 177.05 21.5514 177.13 21.3381L171.81 12.1581C171.556 12.0914 171.31 12.0114 171.07 11.9181C170.843 11.8114 170.63 11.6981 170.43 11.5781V10.8181H176.67V11.5781C176.27 11.8181 175.763 12.0114 175.15 12.1581L177.97 17.5781L178.39 18.8581H178.43L178.83 17.5381L180.81 12.1581ZM189.142 23.4781C189.502 23.5314 189.855 23.6114 190.202 23.7181C190.562 23.8114 190.882 23.9248 191.162 24.0581V24.8181H184.502V24.0581C184.755 23.9114 185.022 23.7914 185.302 23.6981C185.595 23.6048 185.875 23.5314 186.142 23.4781V12.1581C185.835 12.1048 185.542 12.0314 185.262 11.9381C184.982 11.8314 184.728 11.7114 184.502 11.5781V10.8181H187.022C187.555 10.8181 188.162 10.7914 188.842 10.7381C189.535 10.6848 190.168 10.6581 190.742 10.6581C191.448 10.6581 192.135 10.7314 192.802 10.8781C193.482 11.0114 194.082 11.2448 194.602 11.5781C195.135 11.9114 195.562 12.3581 195.882 12.9181C196.202 13.4648 196.362 14.1514 196.362 14.9781C196.362 15.7648 196.202 16.4448 195.882 17.0181C195.575 17.5914 195.162 18.0648 194.642 18.4381C194.122 18.8114 193.522 19.0914 192.842 19.2781C192.162 19.4514 191.462 19.5381 190.742 19.5381C190.675 19.5381 190.568 19.5381 190.422 19.5381C190.275 19.5381 190.115 19.5381 189.942 19.5381C189.782 19.5248 189.622 19.5181 189.462 19.5181C189.315 19.5048 189.208 19.4914 189.142 19.4781V23.4781ZM190.222 11.9581C189.955 11.9581 189.742 11.9714 189.582 11.9981C189.435 12.0114 189.288 12.0381 189.142 12.0781V18.1581C189.262 18.1981 189.442 18.2248 189.682 18.2381C189.922 18.2381 190.115 18.2381 190.262 18.2381C190.622 18.2381 190.968 18.1781 191.302 18.0581C191.635 17.9381 191.928 17.7514 192.182 17.4981C192.448 17.2448 192.662 16.9181 192.822 16.5181C192.982 16.1181 193.062 15.6381 193.062 15.0781C193.062 14.0114 192.802 13.2248 192.282 12.7181C191.762 12.2114 191.075 11.9581 190.222 11.9581ZM203.315 24.8181H197.295V24.0581C197.548 23.9248 197.815 23.8048 198.095 23.6981C198.375 23.5914 198.655 23.5181 198.935 23.4781V12.1581C198.668 12.0914 198.388 12.0181 198.095 11.9381C197.801 11.8448 197.535 11.7248 197.295 11.5781V10.8181H203.315V11.5781C203.115 11.6981 202.888 11.8114 202.635 11.9181C202.381 12.0248 202.108 12.1048 201.815 12.1581V19.7581L201.615 21.3181L202.595 19.6781L207.635 12.6381V12.1581C207.008 12.0114 206.481 11.8181 206.055 11.5781V10.8181H212.075V11.5781C211.848 11.7248 211.588 11.8448 211.295 11.9381C211.015 12.0181 210.728 12.0914 210.435 12.1581V23.4781C210.741 23.5314 211.028 23.6114 211.295 23.7181C211.575 23.8114 211.835 23.9248 212.075 24.0581V24.8181H206.055V24.0581C206.241 23.9648 206.461 23.8648 206.715 23.7581C206.981 23.6381 207.261 23.5448 207.555 23.4781V15.8981L207.755 14.3181L206.855 15.8981L201.735 23.0381V23.4781C202.041 23.5448 202.328 23.6314 202.595 23.7381C202.861 23.8448 203.101 23.9514 203.315 24.0581V24.8181ZM223.28 20.6181H224.1C224.154 20.8314 224.2 21.0914 224.24 21.3981C224.294 21.6914 224.334 22.0114 224.36 22.3581C224.4 22.6914 224.427 23.0248 224.44 23.3581C224.454 23.6914 224.46 23.9914 224.46 24.2581C223.994 24.5514 223.407 24.7581 222.7 24.8781C222.007 24.9981 221.294 25.0581 220.56 25.0581C219.454 25.0581 218.447 24.9248 217.54 24.6581C216.647 24.3781 215.88 23.9448 215.24 23.3581C214.614 22.7581 214.127 22.0048 213.78 21.0981C213.434 20.1781 213.26 19.0781 213.26 17.7981C213.26 16.5314 213.447 15.4448 213.82 14.5381C214.207 13.6181 214.72 12.8648 215.36 12.2781C216 11.6914 216.74 11.2648 217.58 10.9981C218.434 10.7181 219.327 10.5781 220.26 10.5781C221.14 10.5781 221.934 10.6448 222.64 10.7781C223.36 10.8981 223.947 11.0648 224.4 11.2781C224.4 11.4914 224.387 11.7648 224.36 12.0981C224.347 12.4314 224.314 12.7848 224.26 13.1581C224.22 13.5181 224.167 13.8781 224.1 14.2381C224.047 14.5848 223.994 14.8781 223.94 15.1181H223.1L222 12.0981C221.88 12.0314 221.687 11.9781 221.42 11.9381C221.154 11.8981 220.88 11.8781 220.6 11.8781C220.054 11.8781 219.54 11.9914 219.06 12.2181C218.58 12.4314 218.154 12.7781 217.78 13.2581C217.407 13.7381 217.114 14.3581 216.9 15.1181C216.687 15.8648 216.58 16.7648 216.58 17.8181C216.58 19.7248 216.96 21.1914 217.72 22.2181C218.48 23.2448 219.514 23.7581 220.82 23.7581C221.194 23.7581 221.507 23.7314 221.76 23.6781C222.027 23.6114 222.207 23.5248 222.3 23.4181L223.28 20.6181ZM235.08 24.8181H228.2V24.0581C228.467 23.9514 228.767 23.8448 229.1 23.7381C229.447 23.6181 229.794 23.5314 230.14 23.4781V12.1181H227.82L226.54 15.5381H225.72C225.667 15.2714 225.614 14.9314 225.56 14.5181C225.507 14.1048 225.46 13.6781 225.42 13.2381C225.38 12.7981 225.347 12.3648 225.32 11.9381C225.294 11.4981 225.28 11.1248 225.28 10.8181H238.02C238.02 11.1381 238.007 11.5114 237.98 11.9381C237.954 12.3648 237.92 12.7981 237.88 13.2381C237.84 13.6781 237.794 14.1048 237.74 14.5181C237.687 14.9181 237.634 15.2581 237.58 15.5381H236.74L235.46 12.1181H233.14V23.4781C233.487 23.5448 233.827 23.6248 234.16 23.7181C234.507 23.8114 234.814 23.9248 235.08 24.0581V24.8181ZM244.74 24.8181H238.72V24.0581C238.974 23.9248 239.24 23.8048 239.52 23.6981C239.8 23.5914 240.08 23.5181 240.36 23.4781V12.1581C240.094 12.0914 239.814 12.0181 239.52 11.9381C239.227 11.8448 238.96 11.7248 238.72 11.5781V10.8181H244.74V11.5781C244.54 11.6981 244.314 11.8114 244.06 11.9181C243.807 12.0248 243.534 12.1048 243.24 12.1581V19.7581L243.04 21.3181L244.02 19.6781L249.06 12.6381V12.1581C248.434 12.0114 247.907 11.8181 247.48 11.5781V10.8181H253.5V11.5781C253.274 11.7248 253.014 11.8448 252.72 11.9381C252.44 12.0181 252.154 12.0914 251.86 12.1581V23.4781C252.167 23.5314 252.454 23.6114 252.72 23.7181C253 23.8114 253.26 23.9248 253.5 24.0581V24.8181H247.48V24.0581C247.667 23.9648 247.887 23.8648 248.14 23.7581C248.407 23.6381 248.687 23.5448 248.98 23.4781V15.8981L249.18 14.3181L248.28 15.8981L243.16 23.0381V23.4781C243.467 23.5448 243.754 23.6314 244.02 23.7381C244.287 23.8448 244.527 23.9514 244.74 24.0581V24.8181ZM261.886 10.8181H267.246V11.5781C267.02 11.7248 266.76 11.8514 266.466 11.9581C266.173 12.0514 265.906 12.1181 265.666 12.1581L261.866 16.9781C262.173 17.4048 262.533 17.8914 262.946 18.4381C263.36 18.9714 263.8 19.5314 264.266 20.1181C264.733 20.6914 265.213 21.2781 265.706 21.8781C266.2 22.4648 266.68 23.0248 267.146 23.5581L268.106 24.1381V24.8181H264.626L263.826 24.2581C263.506 23.8581 263.166 23.4181 262.806 22.9381C262.46 22.4448 262.113 21.9381 261.766 21.4181C261.42 20.8848 261.08 20.3514 260.746 19.8181C260.413 19.2848 260.1 18.7648 259.806 18.2581H258.946V23.4781C259.24 23.5314 259.506 23.6114 259.746 23.7181C259.986 23.8248 260.193 23.9381 260.366 24.0581V24.8181H254.306V24.0581C254.573 23.9248 254.846 23.8114 255.126 23.7181C255.406 23.6114 255.68 23.5314 255.946 23.4781V12.1581C255.64 12.1181 255.34 12.0448 255.046 11.9381C254.766 11.8314 254.52 11.7114 254.306 11.5781V10.8181H260.366V11.5781C260.193 11.6848 259.98 11.7914 259.726 11.8981C259.486 12.0048 259.226 12.0914 258.946 12.1581V17.2381L260.126 16.9581L263.346 12.1581C263.08 12.1048 262.813 12.0248 262.546 11.9181C262.293 11.7981 262.073 11.6848 261.886 11.5781V10.8181Z" fill="white"/>
<path d="M85.3271 37.1418H81.2139V48.55H79.5352V37.1418H75.4307V35.7532H85.3271V37.1418ZM89.4492 46.1682L91.6641 39.0403H93.4043L89.5811 50.0178C88.9893 51.5999 88.0488 52.3909 86.7598 52.3909L86.4521 52.3645L85.8457 52.2502V50.9319L86.2852 50.967C86.8359 50.967 87.2637 50.8557 87.5684 50.6331C87.8789 50.4104 88.1338 50.0032 88.333 49.4114L88.6934 48.4446L85.3008 39.0403H87.0762L89.4492 46.1682ZM102.896 43.9006C102.896 45.3479 102.565 46.5139 101.903 47.3987C101.241 48.2834 100.345 48.7258 99.2139 48.7258C98.0596 48.7258 97.1514 48.3596 96.4893 47.6272V52.2063H94.8633V39.0403H96.3486L96.4277 40.095C97.0898 39.2747 98.0098 38.8645 99.1875 38.8645C100.33 38.8645 101.232 39.2952 101.895 40.1565C102.562 41.0178 102.896 42.2161 102.896 43.7512V43.9006ZM101.271 43.7161C101.271 42.6438 101.042 41.7971 100.585 41.176C100.128 40.5549 99.501 40.2444 98.7041 40.2444C97.7197 40.2444 96.9814 40.6809 96.4893 41.554V46.0979C96.9756 46.9651 97.7197 47.3987 98.7217 47.3987C99.501 47.3987 100.119 47.0911 100.576 46.4758C101.039 45.8547 101.271 44.9348 101.271 43.7161ZM110.842 48.55C110.748 48.3625 110.672 48.0286 110.613 47.5481C109.857 48.3333 108.955 48.7258 107.906 48.7258C106.969 48.7258 106.198 48.4622 105.595 47.9348C104.997 47.4016 104.698 46.7278 104.698 45.9133C104.698 44.9231 105.073 44.1555 105.823 43.6106C106.579 43.0598 107.64 42.7844 109.005 42.7844H110.587V42.0374C110.587 41.469 110.417 41.0178 110.077 40.6838C109.737 40.344 109.236 40.1741 108.574 40.1741C107.994 40.1741 107.508 40.3206 107.115 40.6135C106.723 40.9065 106.526 41.261 106.526 41.677H104.892C104.892 41.2024 105.059 40.7454 105.393 40.3059C105.732 39.8606 106.189 39.509 106.764 39.2512C107.344 38.9934 107.979 38.8645 108.671 38.8645C109.767 38.8645 110.625 39.1399 111.246 39.6907C111.867 40.2356 112.189 40.9885 112.213 41.9495V46.3264C112.213 47.1995 112.324 47.8938 112.547 48.4094V48.55H110.842ZM108.144 47.3108C108.653 47.3108 109.137 47.179 109.594 46.9153C110.051 46.6516 110.382 46.3088 110.587 45.887V43.9358H109.312C107.32 43.9358 106.324 44.5188 106.324 45.6848C106.324 46.1946 106.494 46.593 106.834 46.8801C107.174 47.1672 107.61 47.3108 108.144 47.3108ZM120.905 40.385H116.52V48.55H114.885V39.0403H120.905V40.385ZM126.091 48.7258C124.802 48.7258 123.753 48.304 122.944 47.4602C122.136 46.6106 121.731 45.4768 121.731 44.0588V43.76C121.731 42.8167 121.91 41.9758 122.268 41.2375C122.631 40.4934 123.135 39.9133 123.779 39.4973C124.43 39.0754 125.133 38.8645 125.889 38.8645C127.125 38.8645 128.086 39.2717 128.771 40.0862C129.457 40.9006 129.8 42.0667 129.8 43.5842V44.261H123.357C123.381 45.1985 123.653 45.9573 124.175 46.5374C124.702 47.1116 125.37 47.3987 126.179 47.3987C126.753 47.3987 127.239 47.2815 127.638 47.0471C128.036 46.8127 128.385 46.5022 128.684 46.1155L129.677 46.8889C128.88 48.1135 127.685 48.7258 126.091 48.7258ZM125.889 40.2004C125.232 40.2004 124.682 40.4407 124.236 40.9211C123.791 41.3958 123.516 42.0637 123.41 42.925H128.174V42.802C128.127 41.9758 127.904 41.3372 127.506 40.886C127.107 40.429 126.568 40.2004 125.889 40.2004ZM139.459 48.55H137.833V44.4895H133.465V48.55H131.83V39.0403H133.465V43.1624H137.833V39.0403H139.459V48.55ZM149.145 40.3586H145.954V48.55H144.328V40.3586H141.199V39.0403H149.145V40.3586ZM153.838 47.3987C154.418 47.3987 154.925 47.2229 155.358 46.8713C155.792 46.5198 156.032 46.0803 156.079 45.553H157.617C157.588 46.0979 157.4 46.6165 157.055 47.1086C156.709 47.6008 156.246 47.9934 155.666 48.2864C155.092 48.5793 154.482 48.7258 153.838 48.7258C152.543 48.7258 151.512 48.2952 150.744 47.4338C149.982 46.5667 149.602 45.3831 149.602 43.8831V43.6106C149.602 42.6848 149.771 41.8616 150.111 41.1409C150.451 40.4202 150.938 39.8606 151.57 39.4622C152.209 39.0637 152.962 38.8645 153.829 38.8645C154.896 38.8645 155.78 39.1838 156.483 39.8225C157.192 40.4612 157.57 41.2903 157.617 42.3098H156.079C156.032 41.6946 155.798 41.1907 155.376 40.7981C154.96 40.3997 154.444 40.2004 153.829 40.2004C153.003 40.2004 152.361 40.4993 151.904 41.0969C151.453 41.6887 151.228 42.5471 151.228 43.6721V43.9797C151.228 45.0754 151.453 45.9192 151.904 46.511C152.355 47.1028 153 47.3987 153.838 47.3987ZM166.512 40.3586H163.321V48.55H161.695V40.3586H158.566V39.0403H166.512V40.3586ZM168.243 48.55V39.0403H171.952C173.218 39.0403 174.188 39.2629 174.861 39.7083C175.541 40.1477 175.881 40.7952 175.881 41.6506C175.881 42.0901 175.749 42.4885 175.485 42.8459C175.222 43.1975 174.832 43.467 174.316 43.6545C174.891 43.7893 175.351 44.053 175.696 44.4456C176.048 44.8381 176.224 45.3069 176.224 45.8518C176.224 46.7249 175.901 47.3928 175.257 47.8557C174.618 48.3186 173.713 48.55 172.541 48.55H168.243ZM169.869 44.3752V47.2405H172.559C173.238 47.2405 173.745 47.1145 174.079 46.8625C174.419 46.6106 174.589 46.2561 174.589 45.7991C174.589 44.8499 173.892 44.3752 172.497 44.3752H169.869ZM169.869 43.0745H171.97C173.493 43.0745 174.255 42.6292 174.255 41.7385C174.255 40.8479 173.534 40.3879 172.093 40.3586H169.869V43.0745ZM177.946 43.7073C177.946 42.7756 178.128 41.9377 178.491 41.1936C178.86 40.4495 179.37 39.8752 180.021 39.4709C180.677 39.0667 181.424 38.8645 182.262 38.8645C183.557 38.8645 184.603 39.3127 185.399 40.2092C186.202 41.1057 186.604 42.2981 186.604 43.7864V43.9006C186.604 44.8264 186.425 45.6584 186.067 46.3967C185.716 47.1292 185.209 47.7004 184.547 48.1106C183.891 48.5208 183.135 48.7258 182.279 48.7258C180.99 48.7258 179.944 48.2776 179.142 47.3811C178.345 46.4846 177.946 45.2981 177.946 43.8215V43.7073ZM179.581 43.9006C179.581 44.9553 179.824 45.802 180.311 46.4407C180.803 47.0793 181.459 47.3987 182.279 47.3987C183.105 47.3987 183.762 47.0764 184.248 46.4319C184.734 45.7815 184.978 44.8733 184.978 43.7073C184.978 42.6643 184.729 41.8206 184.23 41.176C183.738 40.5256 183.082 40.2004 182.262 40.2004C181.459 40.2004 180.812 40.5198 180.319 41.1584C179.827 41.7971 179.581 42.7112 179.581 43.9006Z" fill="white"/>
<path d="M59.5 30.5597C59.5 46.6889 46.2969 59.7725 30 59.7725C13.7031 59.7725 0.5 46.6889 0.5 30.5597C0.5 14.4304 13.7031 1.34692 30 1.34692C46.2969 1.34692 59.5 14.4304 59.5 30.5597Z" stroke="white"/>
<path d="M63.2078 11.2816L61.0769 8.20365L59.2867 6.66713L59.2701 5.41065L58.4212 4.80859L57.3559 7.05326L55.7459 6.01925L55.1886 6.58034L55.8148 7.82405L46.5703 16.5534L32.0115 23.5787L27.644 24.536L26.6165 25.0575L23.9038 28.5303L22.7772 32.2896L22.5127 34.3677L23.0969 35.6082L23.1586 35.1551L24.1991 31.4063L23.2062 38.9768L22.0798 42.3891L20 52.7765H21.8884L21.3175 51.8366L22.3093 46.8737L26.0545 39.4664L25.3657 42.251L28.2919 52.7765H30.2819L29.4497 51.7274L28.0537 47.6033L27.4639 41.4096L29.6087 36.5168L30.8934 35.2753L36.845 35.284L37.8978 36.3235L35.9732 50.5137L36.05 52.7765H37.9439L37.2455 51.7374L37.506 46.3345L40.4114 36.4441L40.7681 36.4466L47.1446 52.7765H49.0591L48.0865 51.7926L46.353 47.1491L43.6351 35.4331L44.3556 29.4224L44.0028 27.7456L44.3345 26.5658L56.7052 12.655L58.5897 12.2904L63.3487 14.0056L63.6867 12.6768L63.2078 11.2816Z" fill="white"/>
</svg>
